<svg xmlns="http://www.w3.org/2000/svg">
    <symbol id="logo" viewBox="0 0 218 49" width="218" height="49">
        <path d="M53.15 19.58V32H51.566V19.58H53.15ZM59.072 24.674V26.042H53.006V24.674H59.072ZM60.458 19.58V32H58.874V19.58H60.458ZM65.8754 19.562C66.4634 19.562 67.0574 19.562 67.6574 19.562C68.2694 19.562 68.8694 19.574 69.4574 19.598C70.0574 19.61 70.6334 19.634 71.1854 19.67L71.1134 20.912H66.1274C65.7554 20.912 65.4854 21.008 65.3174 21.2C65.1494 21.38 65.0654 21.68 65.0654 22.1V29.48C65.0654 29.9 65.1494 30.206 65.3174 30.398C65.4854 30.59 65.7554 30.686 66.1274 30.686H71.1134L71.1854 31.91C70.6334 31.946 70.0574 31.97 69.4574 31.982C68.8694 31.994 68.2694 32 67.6574 32C67.0574 32.012 66.4634 32.018 65.8754 32.018C65.1434 32.018 64.5614 31.826 64.1294 31.442C63.6974 31.046 63.4814 30.518 63.4814 29.858V21.722C63.4814 21.05 63.6974 20.522 64.1294 20.138C64.5614 19.754 65.1434 19.562 65.8754 19.562ZM63.7874 24.8H70.4114V26.078H63.7874V24.8ZM79.3175 20.3C80.5175 20.3 81.5315 20.39 82.3595 20.57C83.1875 20.75 83.8535 21.05 84.3575 21.47C84.8615 21.878 85.2275 22.424 85.4555 23.108C85.6955 23.792 85.8155 24.644 85.8155 25.664C85.8155 26.66 85.6955 27.5 85.4555 28.184C85.2275 28.856 84.8615 29.396 84.3575 29.804C83.8535 30.2 83.1875 30.488 82.3595 30.668C81.5315 30.848 80.5175 30.938 79.3175 30.938C78.1295 30.938 77.1215 30.848 76.2935 30.668C75.4655 30.488 74.7995 30.2 74.2955 29.804C73.7915 29.396 73.4255 28.856 73.1975 28.184C72.9695 27.5 72.8555 26.66 72.8555 25.664C72.8555 24.644 72.9695 23.792 73.1975 23.108C73.4255 22.424 73.7915 21.878 74.2955 21.47C74.7995 21.05 75.4655 20.75 76.2935 20.57C77.1215 20.39 78.1295 20.3 79.3175 20.3ZM79.3175 21.632C78.3935 21.632 77.6195 21.698 76.9955 21.83C76.3715 21.95 75.8735 22.16 75.5015 22.46C75.1415 22.76 74.8775 23.174 74.7095 23.702C74.5535 24.218 74.4755 24.872 74.4755 25.664C74.4755 26.432 74.5535 27.074 74.7095 27.59C74.8775 28.094 75.1415 28.496 75.5015 28.796C75.8735 29.096 76.3715 29.306 76.9955 29.426C77.6195 29.546 78.3935 29.606 79.3175 29.606C80.2415 29.606 81.0155 29.546 81.6395 29.426C82.2635 29.306 82.7615 29.096 83.1335 28.796C83.5055 28.496 83.7755 28.094 83.9435 27.59C84.1115 27.074 84.1955 26.432 84.1955 25.664C84.1955 24.872 84.1115 24.218 83.9435 23.702C83.7755 23.174 83.5055 22.76 83.1335 22.46C82.7615 22.16 82.2635 21.95 81.6395 21.83C81.0155 21.698 80.2415 21.632 79.3175 21.632ZM80.1095 18.572L80.1275 20.822L80.0555 21.182V30.02L80.1275 30.398V32.666H78.5435V30.398L78.5975 30.02V21.182L78.5435 20.822V18.572H80.1095ZM92.5883 19.418C93.5843 19.418 94.3703 19.532 94.9463 19.76C95.5223 19.988 95.9363 20.384 96.1883 20.948C96.4403 21.5 96.5663 22.286 96.5663 23.306C96.5663 24.326 96.4403 25.118 96.1883 25.682C95.9483 26.246 95.5463 26.642 94.9823 26.87C94.4303 27.086 93.6863 27.194 92.7503 27.194C92.2463 27.194 91.7603 27.182 91.2923 27.158C90.8363 27.134 90.4163 27.104 90.0323 27.068C89.6483 27.02 89.3183 26.972 89.0423 26.924C88.7783 26.876 88.5923 26.834 88.4843 26.798L88.5383 25.826C89.1743 25.826 89.8343 25.826 90.5183 25.826C91.2023 25.826 91.8803 25.826 92.5523 25.826C93.1523 25.814 93.6263 25.742 93.9743 25.61C94.3343 25.466 94.5863 25.214 94.7303 24.854C94.8863 24.482 94.9643 23.966 94.9643 23.306C94.9643 22.634 94.8863 22.118 94.7303 21.758C94.5863 21.398 94.3343 21.146 93.9743 21.002C93.6263 20.858 93.1523 20.786 92.5523 20.786C91.5683 20.786 90.7163 20.792 89.9963 20.804C89.2883 20.816 88.8083 20.834 88.5563 20.858L88.3043 19.58C88.7603 19.532 89.1863 19.496 89.5823 19.472C89.9783 19.448 90.4103 19.436 90.8783 19.436C91.3463 19.424 91.9163 19.418 92.5883 19.418ZM89.8883 19.58V32H88.3043V19.58H89.8883ZM108.227 19.58V32H106.697V22.946C106.697 22.706 106.703 22.466 106.715 22.226C106.727 21.986 106.751 21.752 106.787 21.524H106.697C106.613 21.752 106.511 21.986 106.391 22.226C106.271 22.454 106.157 22.67 106.049 22.874L100.541 32H98.9215V19.58H100.451V28.544C100.451 28.796 100.439 29.048 100.415 29.3C100.403 29.54 100.385 29.78 100.361 30.02H100.433C100.529 29.792 100.637 29.564 100.757 29.336C100.889 29.108 101.015 28.886 101.135 28.67L106.589 19.58H108.227ZM115.813 19.58V32H114.229V19.58H115.813ZM119.827 19.58V20.984H110.233V19.58H119.827Z" fill="white"/>
        <path d="M134.186 19.58C133.946 20.264 133.718 20.9 133.502 21.488C133.286 22.076 133.064 22.604 132.836 23.072C132.62 23.54 132.38 23.948 132.116 24.296C131.864 24.632 131.576 24.902 131.252 25.106C130.928 25.31 130.55 25.436 130.118 25.484V25.556C130.586 25.604 130.994 25.73 131.342 25.934C131.69 26.138 131.996 26.426 132.26 26.798C132.536 27.158 132.788 27.596 133.016 28.112C133.256 28.616 133.49 29.198 133.718 29.858C133.958 30.506 134.222 31.22 134.51 32H132.836C132.5 31.064 132.2 30.236 131.936 29.516C131.672 28.796 131.39 28.19 131.09 27.698C130.802 27.194 130.466 26.816 130.082 26.564C129.698 26.3 129.218 26.168 128.642 26.168V24.89C129.182 24.89 129.638 24.758 130.01 24.494C130.394 24.218 130.73 23.84 131.018 23.36C131.306 22.88 131.57 22.322 131.81 21.686C132.05 21.038 132.302 20.336 132.566 19.58H134.186ZM127.4 19.58V23.468C127.4 23.828 127.382 24.176 127.346 24.512C127.31 24.848 127.256 25.178 127.184 25.502C127.244 25.838 127.292 26.174 127.328 26.51C127.376 26.846 127.4 27.17 127.4 27.482V32H125.834V19.58H127.4ZM129.308 24.89V26.168H126.914V24.89H129.308ZM138.913 19.562C139.501 19.562 140.095 19.562 140.695 19.562C141.307 19.562 141.907 19.574 142.495 19.598C143.095 19.61 143.671 19.634 144.223 19.67L144.151 20.912H139.165C138.793 20.912 138.523 21.008 138.355 21.2C138.187 21.38 138.103 21.68 138.103 22.1V29.48C138.103 29.9 138.187 30.206 138.355 30.398C138.523 30.59 138.793 30.686 139.165 30.686H144.151L144.223 31.91C143.671 31.946 143.095 31.97 142.495 31.982C141.907 31.994 141.307 32 140.695 32C140.095 32.012 139.501 32.018 138.913 32.018C138.181 32.018 137.599 31.826 137.167 31.442C136.735 31.046 136.519 30.518 136.519 29.858V21.722C136.519 21.05 136.735 20.522 137.167 20.138C137.599 19.754 138.181 19.562 138.913 19.562ZM136.825 24.8H143.449V26.078H136.825V24.8ZM150.983 19.418C151.979 19.418 152.765 19.532 153.341 19.76C153.917 19.988 154.331 20.384 154.583 20.948C154.835 21.5 154.961 22.286 154.961 23.306C154.961 24.326 154.835 25.118 154.583 25.682C154.343 26.246 153.941 26.642 153.377 26.87C152.825 27.086 152.081 27.194 151.145 27.194C150.641 27.194 150.155 27.182 149.687 27.158C149.231 27.134 148.811 27.104 148.427 27.068C148.043 27.02 147.713 26.972 147.437 26.924C147.173 26.876 146.987 26.834 146.879 26.798L146.933 25.826C147.569 25.826 148.229 25.826 148.913 25.826C149.597 25.826 150.275 25.826 150.947 25.826C151.547 25.814 152.021 25.742 152.369 25.61C152.729 25.466 152.981 25.214 153.125 24.854C153.281 24.482 153.359 23.966 153.359 23.306C153.359 22.634 153.281 22.118 153.125 21.758C152.981 21.398 152.729 21.146 152.369 21.002C152.021 20.858 151.547 20.786 150.947 20.786C149.963 20.786 149.111 20.792 148.391 20.804C147.683 20.816 147.203 20.834 146.951 20.858L146.699 19.58C147.155 19.532 147.581 19.496 147.977 19.472C148.373 19.448 148.805 19.436 149.273 19.436C149.741 19.424 150.311 19.418 150.983 19.418ZM148.283 19.58V32H146.699V19.58H148.283ZM162.176 19.58C162.32 19.58 162.446 19.622 162.554 19.706C162.662 19.778 162.734 19.88 162.77 20.012L166.766 32H165.128L161.906 21.812C161.858 21.644 161.804 21.476 161.744 21.308C161.696 21.128 161.648 20.96 161.6 20.804H161.096C161.048 20.96 161 21.128 160.952 21.308C160.904 21.476 160.85 21.644 160.79 21.812L157.568 32H155.93L159.926 20.012C159.962 19.88 160.034 19.778 160.142 19.706C160.25 19.622 160.376 19.58 160.52 19.58H162.176ZM164.48 26.744V28.112H158.18V26.744H164.48ZM180.249 19.58C180.681 19.58 180.897 19.802 180.897 20.246L181.419 32H179.835L179.385 20.894H179.007L176.235 30.056C176.139 30.416 175.911 30.596 175.551 30.596H174.129C173.757 30.596 173.517 30.416 173.409 30.056L170.637 20.894H170.277L169.845 32H168.261L168.747 20.246C168.771 19.802 168.993 19.58 169.413 19.58H171.213C171.549 19.58 171.771 19.76 171.879 20.12L174.201 27.698C174.297 27.974 174.375 28.25 174.435 28.526C174.507 28.802 174.585 29.084 174.669 29.372H174.993C175.077 29.084 175.155 28.802 175.227 28.526C175.299 28.25 175.377 27.962 175.461 27.662L177.783 20.12C177.879 19.76 178.107 19.58 178.467 19.58H180.249ZM193.604 19.58V32H192.074V22.946C192.074 22.706 192.08 22.466 192.092 22.226C192.104 21.986 192.128 21.752 192.164 21.524H192.074C191.99 21.752 191.888 21.986 191.768 22.226C191.648 22.454 191.534 22.67 191.426 22.874L185.918 32H184.298V19.58H185.828V28.544C185.828 28.796 185.816 29.048 185.792 29.3C185.78 29.54 185.762 29.78 185.738 30.02H185.81C185.906 29.792 186.014 29.564 186.134 29.336C186.266 29.108 186.392 28.886 186.512 28.67L191.966 19.58H193.604ZM205.096 19.58C204.856 20.264 204.628 20.9 204.412 21.488C204.196 22.076 203.974 22.604 203.746 23.072C203.53 23.54 203.29 23.948 203.026 24.296C202.774 24.632 202.486 24.902 202.162 25.106C201.838 25.31 201.46 25.436 201.028 25.484V25.556C201.496 25.604 201.904 25.73 202.252 25.934C202.6 26.138 202.906 26.426 203.17 26.798C203.446 27.158 203.698 27.596 203.926 28.112C204.166 28.616 204.4 29.198 204.628 29.858C204.868 30.506 205.132 31.22 205.42 32H203.746C203.41 31.064 203.11 30.236 202.846 29.516C202.582 28.796 202.3 28.19 202 27.698C201.712 27.194 201.376 26.816 200.992 26.564C200.608 26.3 200.128 26.168 199.552 26.168V24.89C200.092 24.89 200.548 24.758 200.92 24.494C201.304 24.218 201.64 23.84 201.928 23.36C202.216 22.88 202.48 22.322 202.72 21.686C202.96 21.038 203.212 20.336 203.476 19.58H205.096ZM198.31 19.58V23.468C198.31 23.828 198.292 24.176 198.256 24.512C198.22 24.848 198.166 25.178 198.094 25.502C198.154 25.838 198.202 26.174 198.238 26.51C198.286 26.846 198.31 27.17 198.31 27.482V32H196.744V19.58H198.31ZM200.218 24.89V26.168H197.824V24.89H200.218ZM212.397 19.58C212.541 19.58 212.667 19.622 212.775 19.706C212.883 19.778 212.955 19.88 212.991 20.012L216.987 32H215.349L212.127 21.812C212.079 21.644 212.025 21.476 211.965 21.308C211.917 21.128 211.869 20.96 211.821 20.804H211.317C211.269 20.96 211.221 21.128 211.173 21.308C211.125 21.476 211.071 21.644 211.011 21.812L207.789 32H206.151L210.147 20.012C210.183 19.88 210.255 19.778 210.363 19.706C210.471 19.622 210.597 19.58 210.741 19.58H212.397ZM214.701 26.744V28.112H208.401V26.744H214.701Z" fill="#68B660"/>
        <path d="M28.7024 36.9952C28.6471 37.0505 28.5574 37.0506 28.5036 36.994C28.0376 36.5034 27.6655 35.9311 27.4063 35.3052C27.129 34.6358 26.9863 33.9183 26.9863 33.1937C26.9863 32.4691 27.129 31.7516 27.4063 31.0822C27.6655 30.4564 28.0376 29.884 28.5036 29.3935C28.5574 29.3368 28.6471 29.337 28.7024 29.3922L31.6236 32.3134C31.6788 32.3686 31.678 32.4577 31.6302 32.5196C31.5708 32.5966 31.5217 32.6812 31.4844 32.7714C31.4289 32.9053 31.4004 33.0488 31.4004 33.1937C31.4004 33.3386 31.4289 33.4821 31.4844 33.616C31.5217 33.7062 31.5708 33.7909 31.6302 33.8679C31.678 33.9297 31.6788 34.0188 31.6236 34.0741L28.7024 36.9952Z" fill="#F49136"/>
        <path d="M20.6981 28.9919C20.6429 29.0472 20.6428 29.1369 20.6994 29.1907C21.1899 29.6567 21.7623 30.0288 22.3881 30.288C23.0576 30.5653 23.7751 30.7081 24.4996 30.7081C25.2242 30.7081 25.9417 30.5653 26.6111 30.288C27.237 30.0288 27.8093 29.6567 28.2999 29.1907C28.3565 29.1369 28.3564 29.0472 28.3011 28.9919L25.38 26.0708C25.3247 26.0155 25.2356 26.0164 25.1738 26.0641C25.0968 26.1235 25.0121 26.1726 24.9219 26.21C24.7881 26.2654 24.6446 26.294 24.4996 26.294C24.3547 26.294 24.2112 26.2654 24.0773 26.21C23.9871 26.1726 23.9025 26.1235 23.8255 26.0641C23.7636 26.0164 23.6745 26.0155 23.6193 26.0708L20.6981 28.9919Z" fill="#F49136"/>
        <path d="M28.3019 37.3953C28.3571 37.34 28.3572 37.2503 28.3006 37.1965C27.8101 36.7305 27.2377 36.3584 26.6119 36.0992C25.9424 35.8219 25.2249 35.6792 24.5004 35.6792C23.7758 35.6792 23.0583 35.8219 22.3889 36.0992C21.763 36.3584 21.1907 36.7305 20.7001 37.1965C20.6435 37.2503 20.6436 37.34 20.6989 37.3953L23.62 40.3164C23.6753 40.3717 23.7644 40.3708 23.8262 40.3231C23.9032 40.2637 23.9879 40.2146 24.0781 40.1773C24.2119 40.1218 24.3554 40.0933 24.5004 40.0933C24.6453 40.0933 24.7888 40.1218 24.9227 40.1773C25.0129 40.2146 25.0975 40.2637 25.1745 40.3231C25.2364 40.3708 25.3255 40.3717 25.3807 40.3164L28.3019 37.3953Z" fill="#F49136"/>
        <path d="M20.2976 29.3925C20.3529 29.3372 20.4426 29.3371 20.4964 29.3937C20.9624 29.8843 21.3345 30.4566 21.5937 31.0825C21.871 31.7519 22.0137 32.4694 22.0137 33.194C22.0137 33.9186 21.871 34.636 21.5937 35.3055C21.3345 35.9313 20.9624 36.5037 20.4964 36.9942C20.4426 37.0509 20.3529 37.0507 20.2976 36.9955L17.3764 34.0743C17.3212 34.0191 17.322 33.93 17.3698 33.8681C17.4292 33.7911 17.4783 33.7065 17.5156 33.6163C17.5711 33.4824 17.5996 33.3389 17.5996 33.194C17.5996 33.0491 17.5711 32.9056 17.5156 32.7717C17.4783 32.6815 17.4292 32.5968 17.3698 32.5198C17.322 32.458 17.3212 32.3689 17.3764 32.3136L20.2976 29.3925Z" fill="#F49136"/>
        <path d="M37.3958 28.3014C37.3405 28.3566 37.2508 28.3568 37.197 28.3001C36.731 27.8096 36.3589 27.2372 36.0996 26.6114C35.8224 25.9419 35.6796 25.2245 35.6796 24.4999C35.6796 23.7753 35.8224 23.0578 36.0996 22.3884C36.3589 21.7625 36.731 21.1902 37.197 20.6996C37.2508 20.643 37.3405 20.6431 37.3958 20.6984L40.3169 23.6195C40.3722 23.6748 40.3713 23.7639 40.3236 23.8257C40.2642 23.9027 40.2151 23.9874 40.1777 24.0776C40.1223 24.2115 40.0937 24.355 40.0937 24.4999C40.0937 24.6448 40.1223 24.7883 40.1777 24.9222C40.2151 25.0124 40.2642 25.097 40.3236 25.174C40.3713 25.2359 40.3722 25.325 40.3169 25.3802L37.3958 28.3014Z" fill="#EA83B7"/>
        <path d="M29.3915 20.2981C29.3362 20.3533 29.3361 20.4431 29.3928 20.4969C29.8833 20.9629 30.4557 21.335 31.0815 21.5942C31.7509 21.8715 32.4684 22.0142 33.193 22.0142C33.9176 22.0142 34.6351 21.8715 35.3045 21.5942C35.9303 21.335 36.5027 20.9629 36.9932 20.4969C37.0499 20.4431 37.0498 20.3533 36.9945 20.2981L34.0733 17.3769C34.0181 17.3217 33.929 17.3225 33.8671 17.3703C33.7902 17.4297 33.7055 17.4787 33.6153 17.5161C33.4814 17.5716 33.3379 17.6001 33.193 17.6001C33.0481 17.6001 32.9046 17.5716 32.7707 17.5161C32.6805 17.4787 32.5958 17.4297 32.5189 17.3703C32.457 17.3225 32.3679 17.3217 32.3126 17.3769L29.3915 20.2981Z" fill="#EA83B7"/>
        <path d="M36.9952 28.7014C37.0505 28.6462 37.0506 28.5564 36.994 28.5026C36.5034 28.0366 35.9311 27.6645 35.3052 27.4053C34.6358 27.128 33.9183 26.9853 33.1937 26.9853C32.4691 26.9853 31.7516 27.128 31.0822 27.4053C30.4564 27.6645 29.884 28.0366 29.3935 28.5026C29.3368 28.5564 29.337 28.6462 29.3922 28.7014L32.3134 31.6226C32.3686 31.6778 32.4577 31.677 32.5196 31.6293C32.5966 31.5699 32.6812 31.5208 32.7714 31.4834C32.9053 31.4279 33.0488 31.3994 33.1937 31.3994C33.3386 31.3994 33.4821 31.4279 33.616 31.4834C33.7062 31.5208 33.7909 31.5699 33.8679 31.6293C33.9297 31.677 34.0188 31.6778 34.0741 31.6226L36.9952 28.7014Z" fill="#EA83B7"/>
        <path d="M28.991 20.6986C29.0462 20.6434 29.1359 20.6432 29.1898 20.6999C29.6557 21.1904 30.0278 21.7628 30.2871 22.3886C30.5644 23.0581 30.7071 23.7755 30.7071 24.5001C30.7071 25.2247 30.5644 25.9422 30.2871 26.6116C30.0278 27.2375 29.6557 27.8098 29.1898 28.3004C29.1359 28.357 29.0462 28.3569 28.991 28.3016L26.0698 25.3805C26.0146 25.3252 26.0154 25.2361 26.0631 25.1743C26.1225 25.0973 26.1716 25.0126 26.209 24.9224C26.2644 24.7885 26.293 24.645 26.293 24.5001C26.293 24.3552 26.2644 24.2117 26.209 24.0778C26.1716 23.9876 26.1225 23.903 26.0631 23.826C26.0154 23.7641 26.0146 23.675 26.0698 23.6198L28.991 20.6986Z" fill="#EA83B7"/>
        <path d="M20.009 28.3019C19.9538 28.3571 19.8641 28.3572 19.8102 28.3006C19.3443 27.8101 18.9722 27.2377 18.7129 26.6119C18.4356 25.9424 18.2929 25.2249 18.2929 24.5004C18.2929 23.7758 18.4356 23.0583 18.7129 22.3889C18.9722 21.763 19.3443 21.1907 19.8102 20.7001C19.8641 20.6435 19.9538 20.6436 20.009 20.6989L22.9302 23.62C22.9854 23.6753 22.9846 23.7644 22.9369 23.8262C22.8775 23.9032 22.8284 23.9879 22.791 24.0781C22.7356 24.2119 22.707 24.3554 22.707 24.5004C22.707 24.6453 22.7356 24.7888 22.791 24.9227C22.8284 25.0129 22.8775 25.0975 22.9369 25.1745C22.9846 25.2364 22.9854 25.3255 22.9302 25.3807L20.009 28.3019Z" fill="#30AFD7"/>
        <path d="M12.0048 20.2986C11.9495 20.3538 11.9494 20.4436 12.006 20.4974C12.4966 20.9634 13.0689 21.3355 13.6948 21.5947C14.3642 21.872 15.0817 22.0147 15.8063 22.0147C16.5309 22.0147 17.2484 21.872 17.9178 21.5947C18.5436 21.3355 19.116 20.9634 19.6065 20.4974C19.6632 20.4436 19.663 20.3538 19.6078 20.2986L16.6866 17.3774C16.6314 17.3222 16.5423 17.323 16.4804 17.3707C16.4034 17.4301 16.3188 17.4792 16.2286 17.5166C16.0947 17.5721 15.9512 17.6006 15.8063 17.6006C15.6614 17.6006 15.5179 17.5721 15.384 17.5166C15.2938 17.4792 15.2091 17.4301 15.1321 17.3707C15.0703 17.323 14.9812 17.3222 14.9259 17.3774L12.0048 20.2986Z" fill="#30AFD7"/>
        <path d="M19.6085 28.7019C19.6638 28.6467 19.6639 28.5569 19.6072 28.5031C19.1167 28.0371 18.5443 27.665 17.9185 27.4058C17.2491 27.1285 16.5316 26.9858 15.807 26.9858C15.0824 26.9858 14.3649 27.1285 13.6955 27.4058C13.0697 27.665 12.4973 28.0371 12.0068 28.5031C11.9501 28.5569 11.9502 28.6467 12.0055 28.7019L14.9267 31.6231C14.9819 31.6783 15.071 31.6775 15.1329 31.6297C15.2098 31.5703 15.2945 31.5213 15.3847 31.4839C15.5186 31.4284 15.6621 31.3999 15.807 31.3999C15.9519 31.3999 16.0954 31.4284 16.2293 31.4839C16.3195 31.5213 16.4042 31.5703 16.4811 31.6297C16.543 31.6775 16.6321 31.6783 16.6874 31.6231L19.6085 28.7019Z" fill="#30AFD7"/>
        <path d="M11.6042 20.6991C11.6595 20.6439 11.7492 20.6437 11.803 20.7004C12.269 21.1909 12.6411 21.7633 12.9004 22.3891C13.1776 23.0585 13.3204 23.776 13.3204 24.5006C13.3204 25.2252 13.1776 25.9427 12.9004 26.6121C12.6411 27.2379 12.269 27.8103 11.803 28.3008C11.7492 28.3575 11.6595 28.3574 11.6042 28.3021L8.68308 25.381C8.62783 25.3257 8.62867 25.2366 8.67641 25.1748C8.7358 25.0978 8.78489 25.0131 8.82226 24.9229C8.87772 24.789 8.90626 24.6455 8.90626 24.5006C8.90626 24.3557 8.87772 24.2122 8.82226 24.0783C8.78489 23.9881 8.7358 23.9035 8.67641 23.8265C8.62867 23.7646 8.62783 23.6755 8.68308 23.6203L11.6042 20.6991Z" fill="#30AFD7"/>
        <path d="M28.7024 19.608C28.6471 19.6633 28.5574 19.6634 28.5036 19.6067C28.0376 19.1162 27.6655 18.5438 27.4063 17.918C27.129 17.2486 26.9863 16.5311 26.9863 15.8065C26.9863 15.0819 27.129 14.3644 27.4063 13.695C27.6655 13.0692 28.0376 12.4968 28.5036 12.0063C28.5574 11.9496 28.6471 11.9498 28.7024 12.005L31.6236 14.9262C31.6788 14.9814 31.678 15.0705 31.6302 15.1324C31.5708 15.2094 31.5217 15.294 31.4844 15.3842C31.4289 15.5181 31.4004 15.6616 31.4004 15.8065C31.4004 15.9514 31.4289 16.0949 31.4844 16.2288C31.5217 16.319 31.5708 16.4037 31.6302 16.4807C31.678 16.5425 31.6788 16.6316 31.6236 16.6869L28.7024 19.608Z" fill="#68B660"/>
        <path d="M20.6981 11.6047C20.6429 11.66 20.6428 11.7497 20.6994 11.8035C21.1899 12.2695 21.7623 12.6416 22.3881 12.9008C23.0576 13.1781 23.7751 13.3208 24.4996 13.3208C25.2242 13.3208 25.9417 13.1781 26.6111 12.9008C27.237 12.6416 27.8093 12.2695 28.2999 11.8035C28.3565 11.7497 28.3564 11.66 28.3011 11.6047L25.38 8.68357C25.3247 8.62832 25.2356 8.62916 25.1738 8.6769C25.0968 8.73629 25.0121 8.78538 24.9219 8.82275C24.7881 8.8782 24.6446 8.90675 24.4996 8.90675C24.3547 8.90675 24.2112 8.8782 24.0773 8.82275C23.9871 8.78538 23.9025 8.73629 23.8255 8.6769C23.7636 8.62916 23.6745 8.62832 23.6193 8.68357L20.6981 11.6047Z" fill="#68B660"/>
        <path d="M28.3019 20.0081C28.3571 19.9528 28.3572 19.8631 28.3006 19.8093C27.8101 19.3433 27.2377 18.9712 26.6119 18.712C25.9424 18.4347 25.2249 18.2919 24.5004 18.2919C23.7758 18.2919 23.0583 18.4347 22.3889 18.712C21.763 18.9712 21.1907 19.3433 20.7001 19.8093C20.6435 19.8631 20.6436 19.9528 20.6989 20.0081L23.62 22.9292C23.6753 22.9845 23.7644 22.9836 23.8262 22.9359C23.9032 22.8765 23.9879 22.8274 24.0781 22.79C24.2119 22.7346 24.3554 22.706 24.5004 22.706C24.6453 22.706 24.7888 22.7346 24.9227 22.79C25.0129 22.8274 25.0975 22.8765 25.1745 22.9359C25.2364 22.9836 25.3255 22.9845 25.3807 22.9292L28.3019 20.0081Z" fill="#68B660"/>
        <path d="M20.2976 12.0053C20.3529 11.95 20.4426 11.9499 20.4964 12.0065C20.9624 12.4971 21.3345 13.0694 21.5937 13.6953C21.871 14.3647 22.0137 15.0822 22.0137 15.8068C22.0137 16.5314 21.871 17.2488 21.5937 17.9183C21.3345 18.5441 20.9624 19.1165 20.4964 19.607C20.4426 19.6637 20.3529 19.6635 20.2976 19.6083L17.3764 16.6871C17.3212 16.6319 17.322 16.5428 17.3698 16.4809C17.4292 16.4039 17.4783 16.3193 17.5156 16.2291C17.5711 16.0952 17.5996 15.9517 17.5996 15.8068C17.5996 15.6618 17.5711 15.5184 17.5156 15.3845C17.4783 15.2943 17.4292 15.2096 17.3698 15.1326C17.322 15.0708 17.3212 14.9817 17.3764 14.9264L20.2976 12.0053Z" fill="#68B660"/>
    </symbol>
</svg>
